ffmpeg version 2.8.11-0ubuntu0.16.04.1 Copyright (c) 2000-2017 the FFmpeg developers
  built with gcc 5.4.0 (Ubuntu 5.4.0-6ubuntu1~16.04.4) 20160609
  configuration: --prefix=/usr --extra-version=0ubuntu0.16.04.1 --build-suffix=-ffmpeg --toolchain=hardened --libdir=/usr/lib/x86_64-linux-gnu --incdir=/usr/include/x86_64-linux-gnu --cc=cc --cxx=g++ --enable-gpl --enable-shared --disable-stripping --disable-decoder=libopenjpeg --disable-decoder=libschroedinger --enable-avresample --enable-avisynth --enable-gnutls --enable-ladspa --enable-libass --enable-libbluray --enable-libbs2b --enable-libcaca --enable-libcdio --enable-libflite --enable-libfontconfig --enable-libfreetype --enable-libfribidi --enable-libgme --enable-libgsm --enable-libmodplug --enable-libmp3lame --enable-libopenjpeg --enable-libopus --enable-libpulse --enable-librtmp --enable-libschroedinger --enable-libshine --enable-libsnappy --enable-libsoxr --enable-libspeex --enable-libssh --enable-libtheora --enable-libtwolame --enable-libvorbis --enable-libvpx --enable-libwavpack --enable-libwebp --enable-libx265 --enable-libxvid --enable-libzvbi --enable-openal --enable-opengl --enable-x11grab --enable-libdc1394 --enable-libiec61883 --enable-libzmq --enable-frei0r --enable-libx264 --enable-libopencv
  libavutil      54. 31.100 / 54. 31.100
  libavcodec     56. 60.100 / 56. 60.100
  libavformat    56. 40.101 / 56. 40.101
  libavdevice    56.  4.100 / 56.  4.100
  libavfilter     5. 40.101 /  5. 40.101
  libavresample   2.  1.  0 /  2.  1.  0
  libswscale      3.  1.101 /  3.  1.101
  libswresample   1.  2.101 /  1.  2.101
  libpostproc    53.  3.100 / 53.  3.100
[mp3 @ 0x145a8c0] Unknown attached picture mimetype: ('image/png', None), skipping.
[mp3 @ 0x145a8c0] Skipping 0 bytes of junk at 17522.
Input #0, mp3, from 'jan-kochanowski-treny-tren-x.mp3':
  Metadata:
    title           : Jan Kochanowski, "Treny", Tren X
    artist          : Jakub Wieczorek
    album           : Wolne Lektury
    encoder         : Lavf53.21.0
    genre           : Speech
    originator_reference: 7ZobJcW0s4aaaaGk
    date            : 2008-10-31
    performer       : Gosia Kozera
    album_artist    : Fundacja Nowoczesna Polska
    time_reference  : 202596672
    copyright       : 2008 Fundacja Nowoczesna Polska. Licensed to the public under http://creativecommons.org/licenses/by-sa/3.0/deed.pl verify at http://wolnelektury.pl/katalog/lektura/treny-tren-x/
    creation_time   : 0012-08-57
    encoded_by      : Pro Tools
    publisher       : Fundacja Nowoczesna Polska
  Duration: 00:01:53.63, start: 0.000000, bitrate: 65 kb/s
    Stream #0:0: Audio: mp3, 44100 Hz, mono, s16p, 64 kb/s
Output #0, null, to 'pipe:':
  Metadata:
    title           : Jan Kochanowski, "Treny", Tren X
    artist          : Jakub Wieczorek
    album           : Wolne Lektury
    publisher       : Fundacja Nowoczesna Polska
    genre           : Speech
    originator_reference: 7ZobJcW0s4aaaaGk
    date            : 2008-10-31
    performer       : Gosia Kozera
    album_artist    : Fundacja Nowoczesna Polska
    time_reference  : 202596672
    copyright       : 2008 Fundacja Nowoczesna Polska. Licensed to the public under http://creativecommons.org/licenses/by-sa/3.0/deed.pl verify at http://wolnelektury.pl/katalog/lektura/treny-tren-x/
    encoded_by      : Pro Tools
    encoder         : Lavf56.40.101
    Stream #0:0: Audio: pcm_s16le, 44100 Hz, mono, s16, 705 kb/s
    Metadata:
      encoder         : Lavc56.60.100 pcm_s16le
Stream mapping:
  Stream #0:0 -> #0:0 (mp3 (native) -> pcm_s16le (native))
Press [q] to stop, [?] for help
[silencedetect @ 0x146dac0] silence_start: -0.00367347
[silencedetect @ 0x146dac0] silence_end: 0.574694 | silence_duration: 0.578367
[silencedetect @ 0x146dac0] silence_start: 1.56367
[silencedetect @ 0x146dac0] silence_end: 2.0898 | silence_duration: 0.526122
[silencedetect @ 0x146dac0] silence_start: 2.66082
[silencedetect @ 0x146dac0] silence_end: 3.55265 | silence_duration: 0.891837
[silencedetect @ 0x146dac0] silence_start: 3.99306
[silencedetect @ 0x146dac0] silence_end: 4.51918 | silence_duration: 0.526122
[silencedetect @ 0x146dac0] silence_start: 5.32531
[silencedetect @ 0x146dac0] silence_end: 7.88898 | silence_duration: 2.56367
[silencedetect @ 0x146dac0] silence_start: 9.53102
[silencedetect @ 0x146dac0] silence_end: 11.4939 | silence_duration: 1.96286
[silencedetect @ 0x146dac0] silence_start: 12.7963
[silencedetect @ 0x146dac0] silence_end: 14.498 | silence_duration: 1.70163
[silencedetect @ 0x146dac0] silence_start: 15.4869
[silencedetect @ 0x146dac0] silence_end: 15.9869 | silence_duration: 0.5
[silencedetect @ 0x146dac0] silence_start: 18.2559
[silencedetect @ 0x146dac0] silence_end: 19.9314 | silence_duration: 1.67551
[silencedetect @ 0x146dac0] silence_start: 23.402
[silencedetect @ 0x146dac0] silence_end: 23.902 | silence_duration: 0.5
[silencedetect @ 0x146dac0] silence_start: 27.3988
[silencedetect @ 0x146dac0] silence_end: 29.231 | silence_duration: 1.83224
[silencedetect @ 0x146dac0] silence_start: 31.6567
[silencedetect @ 0x146dac0] silence_end: 32.8359 | silence_duration: 1.17918
[silencedetect @ 0x146dac0] silence_start: 36.0714
[silencedetect @ 0x146dac0] silence_end: 38.4784 | silence_duration: 2.40694
[silencedetect @ 0x146dac0] silence_start: 44.8747
[silencedetect @ 0x146dac0] silence_end: 45.3747 | silence_duration: 0.5
[silencedetect @ 0x146dac0] silence_start: 46.0502
[silencedetect @ 0x146dac0] silence_end: 46.6547 | silence_duration: 0.60449
[silencedetect @ 0x146dac0] silence_start: 48.7669
[silencedetect @ 0x146dac0] silence_end: 50.991 | silence_duration: 2.22408
[silencedetect @ 0x146dac0] silence_start: 58.6412
[silencedetect @ 0x146dac0] silence_end: 60.2906 | silence_duration: 1.64939
[silencedetect @ 0x146dac0] silence_start: 62.5857
[silencedetect @ 0x146dac0] silence_end: 63.3469 | silence_duration: 0.761224
[silencedetect @ 0x146dac0] silence_start: 68.62
[silencedetect @ 0x146dac0] silence_end: 71.0008 | silence_duration: 2.38082
[silencedetect @ 0x146dac0] silence_start: 73.1653
[silencedetect @ 0x146dac0] silence_end: 73.7698 | silence_duration: 0.60449
[silencedetect @ 0x146dac0] silence_start: 75.4641
[silencedetect @ 0x146dac0] silence_end: 76.4604 | silence_duration: 0.996327
[silencedetect @ 0x146dac0] silence_start: 77.4494
[silencedetect @ 0x146dac0] silence_end: 78.1584 | silence_duration: 0.70898
[silencedetect @ 0x146dac0] silence_start: 81.1327
[silencedetect @ 0x146dac0] silence_end: 85.0286 | silence_duration: 3.89592
[silencedetect @ 0x146dac0] silence_start: 86.331
[silencedetect @ 0x146dac0] silence_end: 88.9731 | silence_duration: 2.64204
[silencedetect @ 0x146dac0] silence_start: 90.4061
[silencedetect @ 0x146dac0] silence_end: 92.0294 | silence_duration: 1.62327
[silencedetect @ 0x146dac0] silence_start: 93.4102
[silencedetect @ 0x146dac0] silence_end: 95.0073 | silence_duration: 1.59714
[silencedetect @ 0x146dac0] silence_start: 100.907
[silencedetect @ 0x146dac0] silence_end: 102.635 | silence_duration: 1.72776
[silencedetect @ 0x146dac0] silence_start: 104.016
[silencedetect @ 0x146dac0] silence_end: 104.568 | silence_duration: 0.552245
[silencedetect @ 0x146dac0] silence_start: 105.505
[silencedetect @ 0x146dac0] silence_end: 106.449 | silence_duration: 0.944082
[silencedetect @ 0x146dac0] silence_start: 107.307
[silencedetect @ 0x146dac0] silence_end: 108.591 | silence_duration: 1.28367
[silencedetect @ 0x146dac0] silence_start: 111.226
size=N/A time=00:01:53.63 bitrate=N/A    
video:0kB audio:9788kB subtitle:0kB other streams:0kB global headers:0kB muxing overhead: unknown
